<svg xmlns="http://www.w3.org/2000/svg" data-name="Layer 1" viewBox="0 0 100 125" x="0px" y="0px"><path d="m38.95,80.9s.06,0,.09,0c1.1-.05,1.96-.98,1.91-2.08l-1.53-35.62c-.05-1.1-.97-1.97-2.08-1.91-1.1.05-1.96.98-1.91,2.08l1.53,35.62c.05,1.07.93,1.91,2,1.91Z"/><path d="m50,80.9c1.1,0,2-.9,2-2v-35.62c0-1.1-.9-2-2-2s-2,.9-2,2v35.62c0,1.1.9,2,2,2Z"/><path d="m60.96,80.9s.06,0,.09,0c1.06,0,1.95-.84,2-1.91l1.53-35.62c.05-1.1-.81-2.04-1.91-2.08-1.1-.06-2.04.81-2.08,1.91l-1.53,35.62c-.05,1.1.81,2.04,1.91,2.08Z"/><path d="m59.62,10h-19.25c-3.82,0-6.94,3.11-6.94,6.94v2.35h-9.94c-4.41,0-8,3.59-8,8v4.9c0,2.21,1.79,4,4,4h2.59l4.27,46.62c.38,4.1,3.77,7.2,7.89,7.2h31.51c4.12,0,7.51-3.1,7.89-7.2l4.27-46.62h2.59c2.21,0,4-1.79,4-4v-4.9c0-4.41-3.59-8-8-8h-9.94v-2.35c0-3.82-3.11-6.94-6.94-6.94Zm-22.19,6.94c0-1.62,1.32-2.94,2.94-2.94h19.25c1.62,0,2.94,1.32,2.94,2.94v2.35h-25.12v-2.35Zm32.22,65.5c-.19,2.03-1.86,3.56-3.91,3.56h-31.51c-2.04,0-3.72-1.53-3.91-3.56l-4.23-46.25h47.79l-4.23,46.25Zm6.84-59.15c2.21,0,4,1.79,4,4v4.9H19.5v-4.9c0-2.21,1.79-4,4-4h53Z"/></svg>